<svg width="182" height="56" viewBox="0 0 182 56" fill="none" xmlns="http://www.w3.org/2000/svg">
<path d="M143.5 18.0008V8.80078H102.1H82.7L62 24.3008V8.80078H44.4L31 20.9008V8.80078H13.4L0 20.9008L6.20001 28.6008L17.7 18.6008H19.5V46.4008H31.1V20.9008L37.2 28.6008L48.7 18.6008H50.5V46.4008H62.1V39.1008H90.7V46.4008H102.3V39.1008H109.1V30.7008H102.3V18.6008H129.1L108.1 46.4008H122.4L143.4 18.4008L143.5 18.0008ZM90.5 30.6008H72V29.5008L87.6 18.5008H90.5V30.6008Z" fill="white"/>
<path d="M167.598 0H153.498L167.198 17.6L138.898 55.1H153.098L181.298 17.6L167.598 0Z" fill="white"/>
</svg>
